<?xml version="1.0" encoding="UTF-8" standalone="no"?>
<svg
   xmlns:dc="http://purl.org/dc/elements/1.1/"
   xmlns:cc="http://creativecommons.org/ns#"
   xmlns:rdf="http://www.w3.org/1999/02/22-rdf-syntax-ns#"
   xmlns:svg="http://www.w3.org/2000/svg"
   xmlns="http://www.w3.org/2000/svg"
   viewBox="0 0 422.66666 317.33334"
   height="317.33334"
   width="422.66666"
   xml:space="preserve"
   id="svg2"
   version="1.1"><metadata
     id="metadata8"><rdf:RDF><cc:Work
         rdf:about=""><dc:format>image/svg+xml</dc:format><dc:type
           rdf:resource="http://purl.org/dc/dcmitype/StillImage" /></cc:Work></rdf:RDF></metadata><defs
     id="defs6" /><g
     transform="matrix(1.3333333,0,0,-1.3333333,0,317.33333)"
     id="g10"><g
       transform="scale(0.1)"
       id="g12"><path
         id="path14"
         style="fill:#1caf5a;fill-opacity:1;fill-rule:evenodd;stroke:none"
         d="m 1587.66,2376.17 c 869.8,0 1579.2,-532.86 1579.2,-1186.19 C 3166.86,536.652 2457.46,3.78906 1587.66,3.78906 717.871,3.78906 8.46875,536.652 8.46875,1189.98 c 0,653.33 709.40225,1186.19 1579.19125,1186.19" /><path
         id="path16"
         style="fill:#ffffff;fill-opacity:1;fill-rule:evenodd;stroke:none"
         d="m 1580.49,2298.72 c 823.19,0 1494.58,-495.49 1494.58,-1103 C 3075.07,588.211 2403.68,92.7188 1580.49,92.7188 757.309,92.7188 85.9219,588.211 85.9219,1195.72 c 0,607.51 671.3871,1103 1494.5681,1103" /><path
         id="path18"
         style="fill:#1caf5a;fill-opacity:1;fill-rule:evenodd;stroke:none"
         d="m 1581.93,2232.74 c 778.15,0 1412.81,-465.2 1412.81,-1035.59 0,-570.377 -634.66,-1035.584 -1412.81,-1035.584 -778.153,0 -1412.817,465.207 -1412.817,1035.584 0,570.39 634.664,1035.59 1412.817,1035.59" /><path
         id="path20"
         style="fill:#ffffff;fill-opacity:1;fill-rule:evenodd;stroke:none"
         d="m 1583.36,2186.84 c 755.25,0 1371.22,-446.52 1371.22,-993.99 0,-547.467 -615.97,-993.991 -1371.22,-993.991 -755.239,0 -1371.219,446.524 -1371.219,993.991 0,547.47 615.98,993.99 1371.219,993.99" /><path
         id="path22"
         style="fill:#1caf5a;fill-opacity:1;fill-rule:evenodd;stroke:none"
         d="m 663.902,1784.21 435.548,1.21 c 34.18,-3.42 140.13,-80.26 156.51,-190.47 v -236.58 c -10.92,-101.51 -78.87,-174.3 -152.87,-214.74 l -440.402,1.21 1.214,639.37" /><path
         id="path24"
         style="fill:#ffffff;fill-opacity:1;fill-rule:evenodd;stroke:none"
         d="m 704.988,1745.54 376.762,1.06 c 29.56,-2.99 121.22,-70.1 135.39,-166.35 v -206.62 c -9.45,-88.65 -68.23,-152.22 -132.24,-187.54 l -380.962,1.06 1.05,558.39" /><path
         id="path26"
         style="fill:#1caf5a;fill-opacity:1;fill-rule:evenodd;stroke:none"
         d="M 748.453,1692.35 1061.96,1692 c 23.55,-2.45 83.23,-56.29 94.51,-135.25 v -182.84 c -7.52,-72.72 -39.79,-111.53 -90.79,-140.51 l -318.063,0.87 0.836,458.08" /><path
         id="path28"
         style="fill:#ffffff;fill-opacity:1;fill-rule:evenodd;stroke:none"
         d="m 828.227,1607.42 201.873,-0.22 c 15.17,-1.56 53.59,-35.75 60.86,-85.91 v -116.14 c -4.85,-46.19 -25.62,-70.84 -58.46,-89.25 l -204.812,0.56 0.539,290.96" /><path
         id="path30"
         style="fill:#1caf5a;fill-opacity:1;fill-rule:evenodd;stroke:none"
         d="m 859.621,1572.24 136.633,-0.17 c 10.896,-1.19 47.016,-27.27 52.246,-65.53 l -1.22,-89.8 c -3.48,-35.24 -26.91,-52.83 -50.518,-66.86 l -137.532,0.42 0.391,221.94" /><path
         id="path32"
         style="fill:#ffffff;fill-opacity:1;fill-rule:evenodd;stroke:none"
         d="m 889.824,1541.91 91.965,-0.12 c 7.336,-0.87 31.651,-19.84 35.161,-47.66 l -0.81,-65.3 c -2.35,-25.63 -18.12,-38.42 -34.007,-48.63 l -92.57,0.31 0.261,161.4" /><path
         id="path34"
         style="fill:#1caf5a;fill-opacity:1;fill-rule:evenodd;stroke:none"
         d="m 2037.36,1400.39 c 6.85,151.01 -61.12,288.11 -167.76,339.41 -193.78,93.23 -487.92,31.61 -508.78,-316.27 L 1765.26,955.867 C 1729.08,870.938 1636,891.012 1595.52,1034.2 l -231.32,0.09 c -7.27,-235.954 152.42,-358.138 317.06,-363.575 159.58,-5.27 323.83,98.793 345.23,335.985 l -391.85,465.44 c 7.36,85.85 178.78,89.49 179.13,-69.65 l 223.59,-2.1" /><path
         id="path36"
         style="fill:#ffffff;fill-opacity:1;fill-rule:evenodd;stroke:none"
         d="m 2000.54,1439.79 -149.73,0.34 c -19.94,176.15 -267.13,164.25 -258.47,23.3 l 391.65,-466.512 c -13.57,-150.035 -91.48,-228.535 -176.76,-264.449 -58.34,-24.578 -120.68,-30.215 -181.61,-13.516 -121.44,33.281 -224.01,141.285 -222.41,274.027 l 159.18,-0.789 c 51.49,-146.078 189.39,-179.183 251.38,-35.461 l -407.41,473.61 c -5.94,349.79 534.19,464.77 594.18,9.45" /><path
         id="path38"
         style="fill:#1caf5a;fill-opacity:1;fill-rule:evenodd;stroke:none"
         d="m 1882.68,1480.53 75.88,0.68 c -49.51,216.12 -260.01,264.11 -396.37,174.85 -63.08,-41.29 -109.67,-110.72 -119.87,-206.02 l 411.91,-469.489 c 6.9,-102.738 -81.62,-161.219 -162.09,-158.946 -71.77,2.032 -143.89,50.958 -155.65,135.235 h -94.17 c 11.91,-232.399 444.68,-343.738 503.37,26.418 l -403.1,470.172 c -8.46,167.01 263.88,242.21 340.09,27.1" /><path
         id="path40"
         style="fill:#1caf5a;fill-opacity:1;fill-rule:evenodd;stroke:none"
         d="m 2359.43,1551.98 c 78.07,0 141.74,-63.67 141.74,-141.74 0,-78.06 -63.67,-141.73 -141.74,-141.73 -78.05,0 -141.73,63.67 -141.73,141.73 0,78.07 63.68,141.74 141.73,141.74" /><path
         id="path42"
         style="fill:#ffffff;fill-opacity:1;fill-rule:evenodd;stroke:none"
         d="m 2359.43,1509.46 c 54.65,0 99.22,-44.57 99.22,-99.22 0,-54.64 -44.57,-99.2 -99.22,-99.2 -54.64,0 -99.21,44.56 -99.21,99.2 0,54.65 44.57,99.22 99.21,99.22" /><path
         id="path44"
         style="fill:#1caf5a;fill-opacity:1;fill-rule:evenodd;stroke:none"
         d="m 2359.43,1466.94 c 31.23,0 56.7,-25.47 56.7,-56.69 0,-31.23 -25.47,-56.7 -56.7,-56.7 -31.22,0 -56.69,25.47 -56.69,56.7 0,31.22 25.47,56.69 56.69,56.69" /><path
         id="path46"
         style="fill:#1caf5a;fill-opacity:1;fill-rule:evenodd;stroke:none"
         d="M 2214.33,1229.53 H 2497.5 V 666.004 h -283.17 v 563.526" /><path
         id="path48"
         style="fill:#ffffff;fill-opacity:1;fill-rule:evenodd;stroke:none"
         d="m 2253.77,1187.27 h 204.28 v -479 h -204.28 v 479" /><path
         id="path50"
         style="fill:#1caf5a;fill-opacity:1;fill-rule:evenodd;stroke:none"
         d="m 2297.45,1144.3 h 116.93 V 751.238 H 2297.45 V 1144.3" /></g></g></svg>